<svg width="60" height="61" viewBox="0 0 60 61" fill="none" xmlns="http://www.w3.org/2000/svg">
<path d="M30 60C46.5685 60 60 46.5685 60 30C60 13.4315 46.5685 0 30 0C13.4315 0 0 13.4315 0 30C0 46.5685 13.4315 60 30 60Z" fill="#515570"/>
<path d="M30 54C43.2548 54 54 43.2548 54 30C54 16.7452 43.2548 6 30 6C16.7452 6 6 16.7452 6 30C6 43.2548 16.7452 54 30 54Z" fill="#6B718E"/>
<path d="M18.275 57.75C21.9885 59.2986 25.9766 60.081 30 60.05C34.0234 60.081 38.0115 59.2986 41.725 57.75L44 23.5H16L18.275 57.75Z" fill="white"/>
<path opacity="0.1" d="M40.2799 23.5L37.3199 50.575C37.1531 52.1447 36.5369 53.6329 35.5454 54.8612C34.5539 56.0895 33.2291 57.0058 31.7299 57.5C28.7006 58.3801 25.5866 58.9365 22.4399 59.16C24.914 59.7653 27.453 60.0642 29.9999 60.05C34.0233 60.081 38.0114 59.2986 41.7249 57.75L43.9999 23.5H40.2799Z" fill="#356CB6"/>
<path d="M40 14.335H20.5C20.2067 14.3344 19.9196 14.4198 19.6744 14.5807C19.4291 14.7415 19.2363 14.9707 19.12 15.24L17 20.165H43.5L41.39 15.24C41.273 14.9692 41.0787 14.7389 40.8315 14.5779C40.5842 14.4169 40.295 14.3324 40 14.335Z" fill="#A7AECE"/>
<path opacity="0.3" d="M40 14.335H20.5C20.2067 14.3344 19.9196 14.4198 19.6744 14.5807C19.4291 14.7415 19.2363 14.9707 19.12 15.24L17 20.165H43.5L41.39 15.24C41.273 14.9692 41.0787 14.7389 40.8315 14.5779C40.5842 14.4169 40.295 14.3324 40 14.335Z" fill="white"/>
<path d="M30.4651 43.9457L38.6755 46.1457C38.5038 46.7862 38.0849 47.3322 37.5106 47.6637C36.9364 47.9952 36.254 48.0851 35.6136 47.9135L32.2329 47.0076C31.5924 46.836 31.0464 46.417 30.7148 45.8428C30.3833 45.2686 30.2935 44.5862 30.4651 43.9457Z" fill="#393C54"/>
<path d="M21.3287 46.1463L29.5391 43.9463C29.7107 44.5868 29.6209 45.2691 29.2894 45.8434C28.9578 46.4176 28.4118 46.8366 27.7713 47.0082L24.3906 47.914C23.7501 48.0856 23.0678 47.9958 22.4936 47.6643C21.9193 47.3328 21.5003 46.7867 21.3287 46.1463Z" fill="#393C54"/>
<path d="M45.47 18.5H14.53C13.9611 18.5 13.5 18.9611 13.5 19.53V23.47C13.5 24.0389 13.9611 24.5 14.53 24.5H45.47C46.0389 24.5 46.5 24.0389 46.5 23.47V19.53C46.5 18.9611 46.0389 18.5 45.47 18.5Z" fill="#A7AECE"/>
<path opacity="0.15" d="M45.47 18.5H40.97C41.2431 18.5 41.5051 18.6085 41.6983 18.8017C41.8915 18.9948 42 19.2568 42 19.53V23.47C42 23.7432 41.8915 24.0052 41.6983 24.1983C41.5051 24.3915 41.2431 24.5 40.97 24.5H45.47C45.7431 24.5 46.0051 24.3915 46.1983 24.1983C46.3915 24.0052 46.5 23.7432 46.5 23.47V19.53C46.5 19.2568 46.3915 18.9948 46.1983 18.8017C46.0051 18.6085 45.7431 18.5 45.47 18.5Z" fill="#393C54"/>
<path d="M43.8251 43.565L44.7251 30.065C44.734 29.9283 44.7147 29.7913 44.6684 29.6623C44.6222 29.5334 44.5499 29.4153 44.4562 29.3155C44.3624 29.2156 44.2491 29.1361 44.1234 29.0818C43.9976 29.0276 43.862 28.9997 43.7251 29H15.7701C15.6331 28.9997 15.4975 29.0276 15.3717 29.0818C15.246 29.1361 15.1327 29.2156 15.0389 29.3155C14.9452 29.4153 14.8729 29.5334 14.8267 29.6623C14.7804 29.7913 14.7612 29.9283 14.7701 30.065L15.6701 43.565C15.6866 43.8188 15.7992 44.0568 15.985 44.2305C16.1708 44.4042 16.4157 44.5005 16.6701 44.5H42.8301C43.0835 44.4993 43.3273 44.4023 43.512 44.2287C43.6967 44.0552 43.8086 43.8179 43.8251 43.565Z" fill="#F85565"/>
<path d="M43.8251 43.565L44.7251 30.065C44.734 29.9283 44.7147 29.7913 44.6684 29.6623C44.6222 29.5334 44.5499 29.4153 44.4562 29.3155C44.3624 29.2156 44.2491 29.1361 44.1234 29.0818C43.9976 29.0276 43.862 28.9997 43.7251 29H15.7701C15.6331 28.9997 15.4975 29.0276 15.3717 29.0818C15.246 29.1361 15.1327 29.2156 15.0389 29.3155C14.9452 29.4153 14.8729 29.5334 14.8267 29.6623C14.7804 29.7913 14.7612 29.9283 14.7701 30.065L15.6701 43.565C15.6866 43.8188 15.7992 44.0568 15.985 44.2305C16.1708 44.4042 16.4157 44.5005 16.6701 44.5H42.8301C43.0835 44.4993 43.3273 44.4023 43.512 44.2287C43.6967 44.0552 43.8086 43.8179 43.8251 43.565Z" fill="#F85565"/>
<path opacity="0.15" d="M43.73 29H39.73C39.8669 28.9997 40.0025 29.0276 40.1283 29.0818C40.254 29.1361 40.3673 29.2156 40.4611 29.3155C40.5548 29.4153 40.6271 29.5334 40.6733 29.6623C40.7196 29.7913 40.7389 29.9283 40.73 30.065L39.83 43.565C39.8134 43.8188 39.7008 44.0568 39.515 44.2305C39.3293 44.4042 39.0843 44.5005 38.83 44.5H42.83C43.0843 44.5005 43.3293 44.4042 43.515 44.2305C43.7008 44.0568 43.8134 43.8188 43.83 43.565L44.73 30.065C44.7389 29.9283 44.7196 29.7913 44.6733 29.6623C44.6271 29.5334 44.5548 29.4153 44.4611 29.3155C44.3673 29.2156 44.254 29.1361 44.1283 29.0818C44.0025 29.0276 43.8669 28.9997 43.73 29Z" fill="#393C54"/>
<path d="M36.25 40.305C38.5061 40.305 40.335 39.273 40.335 38C40.335 36.727 38.5061 35.695 36.25 35.695C33.994 35.695 32.165 36.727 32.165 38C32.165 39.273 33.994 40.305 36.25 40.305Z" fill="white"/>
<path d="M23.75 40.305C26.0061 40.305 27.835 39.273 27.835 38C27.835 36.727 26.0061 35.695 23.75 35.695C21.494 35.695 19.665 36.727 19.665 38C19.665 39.273 21.494 40.305 23.75 40.305Z" fill="white"/>
<path d="M36.375 38.9C37.2034 38.9 37.875 38.2284 37.875 37.4C37.875 36.5716 37.2034 35.9 36.375 35.9C35.5466 35.9 34.875 36.5716 34.875 37.4C34.875 38.2284 35.5466 38.9 36.375 38.9Z" fill="#515570"/>
<path d="M23.625 38.9C24.4534 38.9 25.125 38.2284 25.125 37.4C25.125 36.5716 24.4534 35.9 23.625 35.9C22.7966 35.9 22.125 36.5716 22.125 37.4C22.125 38.2284 22.7966 38.9 23.625 38.9Z" fill="#515570"/>
<path d="M27.5 50H32.5" stroke="#F85565" stroke-linecap="round" stroke-linejoin="round"/>
<path d="M48 30.5H53C53 31.4283 52.6313 32.3185 51.9749 32.9749C51.3185 33.6312 50.4283 34 49.5 34H44.5C44.5 33.0717 44.8688 32.1815 45.5251 31.5251C46.1815 30.8688 47.0717 30.5 48 30.5Z" fill="#F85565"/>
<path d="M49.4595 33.9812L52.995 37.5167C52.3386 38.1731 51.4484 38.5418 50.5202 38.5418C49.5919 38.5418 48.7017 38.1731 48.0453 37.5167L44.5097 33.9812C45.1661 33.3248 46.0564 32.9561 46.9846 32.9561C47.9129 32.9561 48.8031 33.3248 49.4595 33.9812Z" fill="#F85565"/>
<path opacity="0.2" d="M49.4595 33.9812L52.995 37.5167C52.3386 38.1731 51.4484 38.5418 50.5202 38.5418C49.5919 38.5418 48.7017 38.1731 48.0453 37.5167L44.5097 33.9812C45.1661 33.3248 46.0564 32.9561 46.9846 32.9561C47.9129 32.9561 48.8031 33.3248 49.4595 33.9812Z" fill="white"/>
<path opacity="0.3" d="M47 8.91501H39.915C38.9205 8.91501 37.9667 9.3101 37.2634 10.0134C36.5601 10.7166 36.165 11.6704 36.165 12.665H43.25C44.2446 12.665 45.1984 12.2699 45.9017 11.5667C46.6049 10.8634 47 9.90957 47 8.91501Z" fill="white"/>
<path opacity="0.3" d="M45.385 4.245C44.7245 4.54016 44.1635 5.02009 43.7696 5.62691C43.3757 6.23373 43.1657 6.94154 43.165 7.665H50.025C48.5917 6.37871 47.0379 5.23342 45.385 4.245Z" fill="white"/>
</svg>
