<svg width="158" height="29" viewBox="0 0 158 29" fill="none" xmlns="http://www.w3.org/2000/svg">
<path d="M9.12 14.304V15.296H21.6V14.304C21.6 13.728 21.5467 13.1947 21.44 12.704C21.3547 12.2133 21.2373 11.7547 21.088 11.328L18.88 6.112C18.6453 5.55733 18.4 5.09867 18.144 4.736C17.888 4.352 17.4613 4.16 16.864 4.16H13.728C13.088 4.16 12.64 4.352 12.384 4.736C12.128 5.09867 11.8933 5.54667 11.68 6.08L9.632 11.328C9.48267 11.7547 9.35467 12.2133 9.248 12.704C9.16267 13.1947 9.12 13.728 9.12 14.304ZM14.24 7.68C14.3253 7.488 14.4107 7.34933 14.496 7.264C14.6027 7.17867 14.72 7.136 14.848 7.136H15.648C15.776 7.136 15.8827 7.17867 15.968 7.264C16.0747 7.34933 16.1707 7.488 16.256 7.68L17.76 12.544H12.736L14.24 7.68ZM21.6 21.12V15.616H9.12V21.12H8.8V14.304C8.8 13.7067 8.84267 13.1627 8.928 12.672C9.03467 12.16 9.17333 11.6693 9.344 11.2L11.392 5.952C11.6267 5.35467 11.8933 4.85333 12.192 4.448C12.4907 4.04267 13.0027 3.84 13.728 3.84H16.864C17.568 3.84 18.0587 4.04267 18.336 4.448C18.6347 4.85333 18.912 5.36533 19.168 5.984L21.376 11.2C21.5467 11.6693 21.6747 12.16 21.76 12.672C21.8667 13.1627 21.92 13.7067 21.92 14.304V21.12H21.6ZM12.416 22.848V18.368H18.08V22.848C18.08 23.2533 18.176 23.552 18.368 23.744C18.5813 23.9147 18.9013 24 19.328 24H24.16C24.5653 24 24.8533 23.9147 25.024 23.744C25.216 23.552 25.312 23.2533 25.312 22.848V14.4C25.312 13.76 25.2053 13.024 24.992 12.192C24.8 11.36 24.4907 10.3893 24.064 9.28L21.28 2.016C21.152 1.65333 20.9493 1.38667 20.672 1.216C20.416 1.04533 20.0853 0.959999 19.68 0.959999H11.072C10.6453 0.959999 10.2933 1.04533 10.016 1.216C9.76 1.38667 9.568 1.65333 9.44 2.016L6.656 9.28C6.22933 10.3893 5.90933 11.36 5.696 12.192C5.504 13.024 5.408 13.76 5.408 14.4V22.848C5.408 23.2533 5.49333 23.552 5.664 23.744C5.856 23.9147 6.15467 24 6.56 24H11.264C11.6693 24 11.9573 23.9147 12.128 23.744C12.32 23.552 12.416 23.2533 12.416 22.848ZM8.128 27.488C8.04267 27.5733 7.904 27.648 7.712 27.712C7.54133 27.776 7.34933 27.808 7.136 27.808H2.432C1.92 27.808 1.54667 27.6907 1.312 27.456C1.07733 27.2213 0.96 26.848 0.96 26.336V17.888C0.96 17.2267 1.056 16.48 1.248 15.648C1.46133 14.7947 1.792 13.792 2.24 12.64L4.992 5.408C5.056 5.216 5.13067 5.056 5.216 4.928C5.32267 4.77867 5.42933 4.65067 5.536 4.544L5.568 4.512L9.664 1.088C9.83467 0.938665 10.0373 0.831999 10.272 0.768C10.5067 0.682666 10.7733 0.639999 11.072 0.639999H19.68C20.1707 0.639999 20.5653 0.746666 20.864 0.959999C21.184 1.152 21.4187 1.46133 21.568 1.888L24.352 9.152C24.8 10.304 25.12 11.3067 25.312 12.16C25.5253 12.992 25.632 13.7387 25.632 14.4V22.848C25.632 23.1253 25.5893 23.36 25.504 23.552C25.44 23.744 25.3333 23.904 25.184 24.032L21.024 27.488C20.9387 27.5733 20.8 27.648 20.608 27.712C20.4373 27.776 20.2453 27.808 20.032 27.808H15.2C14.6667 27.808 14.272 27.68 14.016 27.424C13.76 27.1893 13.632 26.8267 13.632 26.336V22.176H12.736V22.848C12.736 23.1253 12.6933 23.36 12.608 23.552C12.544 23.744 12.4373 23.904 12.288 24.032L8.128 27.488ZM33.322 27.808C32.8313 27.808 32.4367 27.712 32.138 27.52C31.8393 27.3493 31.594 27.0293 31.402 26.56L28.266 18.72C28.074 18.2293 27.9033 17.8133 27.754 17.472C27.626 17.1093 27.5193 16.768 27.434 16.448C27.3487 16.1067 27.2847 15.7547 27.242 15.392C27.2207 15.008 27.21 14.56 27.21 14.048V5.6C27.21 5.32267 27.242 5.088 27.306 4.896C27.3913 4.704 27.5087 4.544 27.658 4.416L31.786 0.927999C31.8927 0.842666 32.0313 0.778666 32.202 0.735998C32.394 0.671999 32.5967 0.639999 32.81 0.639999H37.898C38.41 0.639999 38.794 0.767999 39.05 1.024C39.3273 1.25867 39.466 1.62133 39.466 2.112V10.944C39.466 11.1573 39.4873 11.36 39.53 11.552C39.5727 11.744 39.626 11.9467 39.69 12.16L39.786 12.384V5.6C39.786 5.32267 39.818 5.088 39.882 4.896C39.9673 4.704 40.0847 4.544 40.234 4.416L44.362 0.927999C44.4687 0.842666 44.6073 0.778666 44.778 0.735998C44.97 0.671999 45.1727 0.639999 45.386 0.639999H50.41C50.9433 0.639999 51.3167 0.757332 51.53 0.991999C51.7647 1.22667 51.882 1.6 51.882 2.112V10.56C51.882 11.072 51.8607 11.52 51.818 11.904C51.7967 12.2667 51.7433 12.6187 51.658 12.96C51.5727 13.28 51.4553 13.6213 51.306 13.984C51.178 14.3253 51.018 14.7413 50.826 15.232L47.69 23.072C47.626 23.264 47.5407 23.4347 47.434 23.584C47.3273 23.7333 47.2207 23.8507 47.114 23.936L42.986 27.36C42.8153 27.5093 42.6127 27.616 42.378 27.68C42.1647 27.7653 41.9193 27.808 41.642 27.808H33.322ZM45.77 24C46.1753 24 46.506 23.9253 46.762 23.776C47.0393 23.6267 47.2527 23.3493 47.402 22.944L50.538 15.104C50.73 14.6347 50.89 14.2293 51.018 13.888C51.146 13.5253 51.2527 13.184 51.338 12.864C51.4233 12.544 51.4767 12.2133 51.498 11.872C51.5407 11.5093 51.562 11.072 51.562 10.56V2.112C51.562 1.70667 51.466 1.41867 51.274 1.248C51.1033 1.056 50.8153 0.959999 50.41 0.959999H45.386C44.9807 0.959999 44.682 1.056 44.49 1.248C44.3193 1.41867 44.234 1.70667 44.234 2.112V10.912C44.234 11.1253 44.2127 11.3387 44.17 11.552C44.1273 11.7653 44.0633 11.9893 43.978 12.224L42.474 16.736C42.41 16.9493 42.3353 17.0987 42.25 17.184C42.1647 17.248 42.0367 17.28 41.866 17.28H41.514C41.3433 17.28 41.2153 17.248 41.13 17.184C41.0447 17.0987 40.97 16.9493 40.906 16.736L39.402 12.256C39.3167 12.0213 39.2527 11.7973 39.21 11.584C39.1673 11.3707 39.146 11.1573 39.146 10.944V2.112C39.146 1.70667 39.0393 1.41867 38.826 1.248C38.6127 1.056 38.3033 0.959999 37.898 0.959999H32.81C32.4047 0.959999 32.106 1.056 31.914 1.248C31.7433 1.41867 31.658 1.70667 31.658 2.112V10.56C31.658 11.072 31.6687 11.5093 31.69 11.872C31.7327 12.2133 31.7967 12.544 31.882 12.864C31.9673 13.184 32.074 13.5253 32.202 13.888C32.33 14.2293 32.49 14.6347 32.682 15.104L35.818 22.944C35.9673 23.3493 36.17 23.6267 36.426 23.776C36.7033 23.9253 37.0447 24 37.45 24H45.77ZM35.274 3.84H35.594V10.752C35.594 11.3067 35.6367 11.84 35.722 12.352C35.8073 12.8427 35.9353 13.3013 36.106 13.728L38.218 18.848C38.4313 19.4027 38.666 19.872 38.922 20.256C39.1993 20.6187 39.6367 20.8 40.234 20.8H43.05C43.6473 20.8 44.074 20.6187 44.33 20.256C44.6073 19.872 44.8527 19.4027 45.066 18.848L47.178 13.728C47.3487 13.3013 47.4767 12.8427 47.562 12.352C47.6473 11.84 47.69 11.3067 47.69 10.752V3.84H48.01V10.752C48.01 11.3493 47.9673 11.904 47.882 12.416C47.818 12.9067 47.69 13.3867 47.498 13.856L45.386 18.976C45.13 19.5947 44.842 20.1067 44.522 20.512C44.202 20.9173 43.7113 21.12 43.05 21.12H40.234C39.5727 21.12 39.082 20.9173 38.762 20.512C38.442 20.1067 38.154 19.5947 37.898 18.976L35.786 13.856C35.594 13.3867 35.4553 12.9067 35.37 12.416C35.306 11.904 35.274 11.3493 35.274 10.752V3.84ZM62.1565 21.12V3.84H62.4765V12.32H74.7645V3.84H75.0845V21.12H74.7645V12.64H62.4765V21.12H62.1565ZM64.8125 24C65.2178 24 65.5058 23.9147 65.6765 23.744C65.8685 23.552 65.9645 23.2533 65.9645 22.848V15.744H71.3085V22.848C71.3085 23.2533 71.3938 23.552 71.5645 23.744C71.7565 23.9147 72.0552 24 72.4605 24H77.4205C77.8258 24 78.1138 23.9147 78.2845 23.744C78.4765 23.552 78.5725 23.2533 78.5725 22.848V2.112C78.5725 1.70667 78.4765 1.41867 78.2845 1.248C78.1138 1.056 77.8258 0.959999 77.4205 0.959999H72.4605C72.0552 0.959999 71.7565 1.056 71.5645 1.248C71.3938 1.41867 71.3085 1.70667 71.3085 2.112V9.056H65.9645V2.112C65.9645 1.70667 65.8685 1.41867 65.6765 1.248C65.5058 1.056 65.2178 0.959999 64.8125 0.959999H59.8525C59.4472 0.959999 59.1485 1.056 58.9565 1.248C58.7858 1.41867 58.7005 1.70667 58.7005 2.112V22.848C58.7005 23.2533 58.7858 23.552 58.9565 23.744C59.1485 23.9147 59.4472 24 59.8525 24H64.8125ZM65.8365 24.032L61.6765 27.488C61.5912 27.5733 61.4525 27.648 61.2605 27.712C61.0898 27.776 60.8978 27.808 60.6845 27.808H55.7245C55.2125 27.808 54.8392 27.6907 54.6045 27.456C54.3698 27.2213 54.2525 26.848 54.2525 26.336V5.6C54.2525 5.32267 54.2845 5.088 54.3485 4.896C54.4338 4.704 54.5512 4.544 54.7005 4.416L58.8285 0.927999C58.9352 0.842666 59.0738 0.778666 59.2445 0.735998C59.4365 0.671999 59.6392 0.639999 59.8525 0.639999H64.8125C65.3245 0.639999 65.6978 0.757332 65.9325 0.991999C66.1672 1.22667 66.2845 1.6 66.2845 2.112V8.736H66.8605V5.6C66.8605 5.32267 66.8925 5.088 66.9565 4.896C67.0418 4.704 67.1592 4.544 67.3085 4.416L71.4365 0.927999C71.5432 0.842666 71.6818 0.778666 71.8525 0.735998C72.0445 0.671999 72.2472 0.639999 72.4605 0.639999H77.4205C77.9325 0.639999 78.3058 0.757332 78.5405 0.991999C78.7752 1.22667 78.8925 1.6 78.8925 2.112V22.848C78.8925 23.1253 78.8498 23.36 78.7645 23.552C78.7005 23.744 78.5938 23.904 78.4445 24.032L74.2845 27.488C74.1992 27.5733 74.0605 27.648 73.8685 27.712C73.6978 27.776 73.5058 27.808 73.2925 27.808H68.3325C67.8205 27.808 67.4472 27.6907 67.2125 27.456C66.9778 27.2213 66.8605 26.848 66.8605 26.336V19.552H66.2845V22.848C66.2845 23.1253 66.2418 23.36 66.1565 23.552C66.0925 23.744 65.9858 23.904 65.8365 24.032ZM98.0725 27.808H83.2245C82.7125 27.808 82.3392 27.6907 82.1045 27.456C81.8698 27.2213 81.7525 26.848 81.7525 26.336V5.6C81.7525 5.32267 81.7845 5.088 81.8485 4.896C81.9338 4.704 82.0512 4.544 82.2005 4.416L86.3285 0.927999C86.4352 0.842666 86.5738 0.778666 86.7445 0.735998C86.9365 0.671999 87.1392 0.639999 87.3525 0.639999H102.201C102.713 0.639999 103.086 0.757332 103.321 0.991999C103.555 1.22667 103.673 1.6 103.673 2.112V5.856C103.673 6.13333 103.63 6.368 103.545 6.56C103.481 6.752 103.374 6.912 103.225 7.04L100.473 9.312C100.686 9.41867 100.835 9.57867 100.921 9.792C101.027 10.0053 101.081 10.2827 101.081 10.624V14.048C101.081 14.3253 101.038 14.56 100.953 14.752C100.889 14.944 100.782 15.104 100.633 15.232L97.7845 17.632H102.201C102.713 17.632 103.086 17.7493 103.321 17.984C103.555 18.2187 103.673 18.592 103.673 19.104V22.848C103.673 23.1253 103.63 23.36 103.545 23.552C103.481 23.744 103.374 23.904 103.225 24.032L99.0645 27.488C98.9792 27.5733 98.8405 27.648 98.6485 27.712C98.4778 27.776 98.2858 27.808 98.0725 27.808ZM102.201 24C102.606 24 102.894 23.9147 103.065 23.744C103.257 23.552 103.353 23.2533 103.353 22.848V19.104C103.353 18.6987 103.257 18.4107 103.065 18.24C102.894 18.048 102.606 17.952 102.201 17.952H93.3685V15.2H99.6085C100.014 15.2 100.302 15.1147 100.473 14.944C100.665 14.752 100.761 14.4533 100.761 14.048V10.624C100.761 10.2187 100.665 9.93067 100.473 9.76C100.302 9.568 100.014 9.472 99.6085 9.472H93.3685V7.008H102.201C102.606 7.008 102.894 6.92267 103.065 6.752C103.257 6.56 103.353 6.26133 103.353 5.856V2.112C103.353 1.70667 103.257 1.41867 103.065 1.248C102.894 1.056 102.606 0.959999 102.201 0.959999H87.3525C86.9472 0.959999 86.6485 1.056 86.4565 1.248C86.2858 1.41867 86.2005 1.70667 86.2005 2.112V22.848C86.2005 23.2533 86.2858 23.552 86.4565 23.744C86.6485 23.9147 86.9472 24 87.3525 24H102.201ZM100.473 20.8V21.12H89.6885V3.84H100.473V4.16H90.0085V12.192H97.8805V12.512H90.0085V20.8H100.473ZM124.278 26.112C123.616 26.6667 122.774 27.0827 121.75 27.36C120.726 27.6587 119.52 27.808 118.134 27.808H107.35C106.838 27.808 106.464 27.6907 106.23 27.456C105.995 27.2213 105.878 26.848 105.878 26.336V5.6C105.878 5.32267 105.91 5.088 105.974 4.896C106.059 4.704 106.176 4.544 106.326 4.416L110.454 0.927999C110.56 0.842666 110.699 0.778666 110.87 0.735998C111.062 0.671999 111.264 0.639999 111.478 0.639999H122.262C125.056 0.639999 127.115 1.20533 128.438 2.336C129.782 3.46667 130.454 5.184 130.454 7.488V17.472C130.454 18.624 130.283 19.6373 129.942 20.512C129.6 21.3653 129.099 22.08 128.438 22.656L124.278 26.112ZM122.262 24C124.928 24 126.902 23.4667 128.182 22.4C129.483 21.3333 130.134 19.6907 130.134 17.472V7.488C130.134 5.26933 129.483 3.62667 128.182 2.56C126.902 1.49333 124.928 0.959999 122.262 0.959999H111.478C111.072 0.959999 110.774 1.056 110.582 1.248C110.411 1.41867 110.326 1.70667 110.326 2.112V22.848C110.326 23.2533 110.411 23.552 110.582 23.744C110.774 23.9147 111.072 24 111.478 24H122.262ZM113.814 21.12V3.84H121.558C122.646 3.84 123.52 3.95733 124.182 4.192C124.864 4.42667 125.387 4.74667 125.75 5.152C126.112 5.536 126.358 6.00533 126.486 6.56C126.614 7.09333 126.678 7.66933 126.678 8.288V16.768C126.678 17.3867 126.614 17.9627 126.486 18.496C126.379 19.0293 126.144 19.488 125.782 19.872C125.419 20.256 124.896 20.5653 124.214 20.8C123.531 21.0133 122.646 21.12 121.558 21.12H113.814ZM121.558 4.16H114.134V20.8H121.558C122.582 20.8 123.403 20.704 124.022 20.512C124.662 20.2987 125.152 20.0213 125.494 19.68C125.835 19.3173 126.059 18.8907 126.166 18.4C126.294 17.888 126.358 17.344 126.358 16.768V8.288C126.358 7.712 126.294 7.168 126.166 6.656C126.038 6.144 125.803 5.70667 125.462 5.344C125.12 4.98133 124.63 4.69333 123.99 4.48C123.371 4.26667 122.56 4.16 121.558 4.16ZM117.59 7.072H121.398C121.91 7.072 122.283 7.2 122.517 7.456C122.774 7.69067 122.902 8.07467 122.902 8.608V16.384C122.902 16.9173 122.774 17.312 122.517 17.568C122.283 17.824 121.91 17.952 121.398 17.952H117.59V7.072ZM118.454 12.096C118.454 11.8187 118.411 11.584 118.326 11.392C118.24 11.2 118.102 11.0613 117.91 10.976V17.632H118.454V12.096ZM151.18 26.272C150.433 26.912 149.388 27.4027 148.044 27.744C146.7 28.1067 144.972 28.288 142.86 28.288C140.769 28.288 139.052 28.064 137.708 27.616C136.385 27.1893 135.34 26.6133 134.572 25.888C133.825 25.1627 133.303 24.3307 133.004 23.392C132.727 22.4533 132.588 21.4827 132.588 20.48V10.528C132.588 9.54667 132.727 8.64 133.004 7.808C133.281 6.95467 133.783 6.22933 134.508 5.632L138.668 2.176C139.415 1.536 140.449 1.04533 141.772 0.703999C143.116 0.341331 144.855 0.159998 146.988 0.159998C149.079 0.159998 150.785 0.330665 152.108 0.671999C153.452 1.01333 154.497 1.49333 155.244 2.112C156.012 2.70933 156.535 3.43467 156.812 4.288C157.089 5.12 157.228 6.03733 157.228 7.04V17.952C157.228 18.9333 157.089 19.84 156.812 20.672C156.535 21.504 156.033 22.2187 155.308 22.816L151.18 26.272ZM156.908 17.952V7.04C156.908 6.05867 156.759 5.17333 156.46 4.384C156.183 3.57333 155.671 2.88 154.924 2.304C154.199 1.728 153.185 1.28 151.884 0.959999C150.604 0.639999 148.972 0.48 146.988 0.48C145.004 0.48 143.361 0.639999 142.06 0.959999C140.759 1.28 139.735 1.728 138.988 2.304C138.263 2.88 137.751 3.57333 137.452 4.384C137.175 5.17333 137.036 6.05867 137.036 7.04V17.952C137.036 18.9333 137.175 19.8293 137.452 20.64C137.751 21.4293 138.263 22.112 138.988 22.688C139.735 23.2427 140.759 23.68 142.06 24C143.361 24.32 145.004 24.48 146.988 24.48C148.972 24.48 150.604 24.32 151.884 24C153.185 23.68 154.199 23.2427 154.924 22.688C155.671 22.112 156.183 21.4293 156.46 20.64C156.759 19.8293 156.908 18.9333 156.908 17.952ZM153.42 17.216C153.42 18.496 152.961 19.5413 152.044 20.352C151.127 21.1413 149.42 21.536 146.924 21.536C144.428 21.536 142.732 21.1413 141.836 20.352C140.94 19.5413 140.492 18.496 140.492 17.216V7.776C140.492 6.496 140.94 5.46133 141.836 4.672C142.732 3.86133 144.428 3.456 146.924 3.456C149.42 3.456 151.127 3.86133 152.044 4.672C152.961 5.46133 153.42 6.496 153.42 7.776V17.216ZM140.812 17.216C140.812 18.4107 141.239 19.3813 142.092 20.128C142.945 20.8533 144.556 21.216 146.924 21.216C149.292 21.216 150.913 20.8533 151.788 20.128C152.663 19.3813 153.1 18.4107 153.1 17.216V7.776C153.1 6.58133 152.663 5.62133 151.788 4.896C150.913 4.14933 149.292 3.776 146.924 3.776C144.556 3.776 142.945 4.14933 142.092 4.896C141.239 5.62133 140.812 6.58133 140.812 7.776V17.216ZM144.3 16.8V8.192C144.3 7.78667 144.46 7.44533 144.78 7.168C145.1 6.86933 145.836 6.72 146.988 6.72C148.14 6.72 148.876 6.86933 149.196 7.168C149.516 7.44533 149.676 7.78667 149.676 8.192V16.8C149.676 17.2267 149.516 17.5893 149.196 17.888C148.876 18.1653 148.14 18.304 146.988 18.304C145.836 18.304 145.1 18.1653 144.78 17.888C144.46 17.5893 144.3 17.2267 144.3 16.8ZM144.62 16.8C144.62 17.0133 144.663 17.2053 144.748 17.376C144.833 17.5253 144.993 17.6533 145.228 17.76V11.68C145.228 11.4667 145.185 11.2853 145.1 11.136C145.015 10.9653 144.855 10.8373 144.62 10.752V16.8Z" fill="black"/>
</svg>
