<svg width="34" height="34" viewBox="0 0 34 34" fill="none" xmlns="http://www.w3.org/2000/svg">
<path d="M29.1691 31.1667C29.1691 25.6842 23.715 21.25 17 21.25C10.285 21.25 4.83081 25.6842 4.83081 31.1667M17 17C18.8786 17 20.6803 16.2537 22.0086 14.9254C23.337 13.597 24.0833 11.7953 24.0833 9.91668C24.0833 8.03806 23.337 6.23639 22.0086 4.908C20.6803 3.57962 18.8786 2.83334 17 2.83334C15.1214 2.83334 13.3197 3.57962 11.9913 4.908C10.6629 6.23639 9.91664 8.03806 9.91664 9.91668C9.91664 11.7953 10.6629 13.597 11.9913 14.9254C13.3197 16.2537 15.1214 17 17 17Z" stroke="black" stroke-width="1.5" stroke-linecap="round" stroke-linejoin="round"/>
</svg>
