<svg width="24" height="28" viewBox="0 0 24 28" fill="none" xmlns="http://www.w3.org/2000/svg">
<path d="M7.75002 21.0833V22.5C7.75002 23.0582 7.85995 23.6108 8.07353 24.1265C8.28712 24.642 8.60016 25.1105 8.99482 25.5052C9.38953 25.8999 9.85802 26.2129 10.3735 26.4264C10.8892 26.6401 11.4419 26.75 12 26.75C12.5582 26.75 13.1108 26.6401 13.6265 26.4264C14.142 26.2129 14.6105 25.8999 15.0052 25.5052C15.3999 25.1105 15.713 24.642 15.9265 24.1265C16.1401 23.6108 16.25 23.0582 16.25 22.5V21.0833M20.5 9.75C20.5 14 23.3334 21.0833 23.3334 21.0833H0.666687C0.666687 21.0833 3.50002 15.4167 3.50002 9.75C3.50002 5.12033 7.37035 1.25 12 1.25C16.6297 1.25 20.5 5.12033 20.5 9.75Z" stroke="black" stroke-width="1.216" stroke-linecap="round" stroke-linejoin="round"/>
</svg>
