<svg width="20" height="18" viewBox="0 0 20 18" fill="none" xmlns="http://www.w3.org/2000/svg">
<path d="M10.02 17.2794C9.9625 17.2794 9.90437 17.2575 9.86062 17.2138L1.88 9.23313C0.938123 8.29125 0.419373 7.04188 0.419373 5.715C0.419373 4.37813 0.938123 3.12313 1.88 2.18063C2.82125 1.23938 4.0725 0.721251 5.40437 0.720001H5.40562C6.73812 0.720001 7.99062 1.23875 8.9325 2.18063L10.02 3.26813L11.1075 2.18063C12.0494 1.23875 13.3019 0.720001 14.6337 0.720001C14.6356 0.720001 14.6369 0.720001 14.6388 0.720001C15.9688 0.721251 17.2194 1.24 18.1606 2.18063C19.1025 3.12313 19.6212 4.375 19.6212 5.70688C19.6212 7.03875 19.1025 8.29063 18.1606 9.23313L10.1794 17.2138C10.135 17.2575 10.0775 17.2794 10.02 17.2794ZM5.40562 1.17063H5.40437C4.19312 1.17125 3.055 1.64313 2.19875 2.49938C1.34187 3.35625 0.869998 4.49813 0.869998 5.715C0.869998 6.92188 1.34187 8.05813 2.19875 8.91438L10.02 16.7356L17.8412 8.91438C18.6981 8.0575 19.17 6.91875 19.17 5.70688C19.17 4.495 18.6981 3.35625 17.8412 2.49938C16.985 1.64375 15.8475 1.17188 14.6381 1.17063C14.6362 1.17063 14.6344 1.17063 14.6331 1.17063C13.4219 1.17063 12.2825 1.64188 11.4256 2.49938L10.1787 3.74625C10.0906 3.83438 9.94812 3.83438 9.86 3.74625L8.61312 2.49938C7.7575 1.6425 6.6175 1.17063 5.40562 1.17063Z" fill="#7A7A7A" stroke="#7A7A7A" stroke-width="0.896"/>
</svg>
